<svg width="199" height="29" viewBox="0 0 199 29" fill="none" xmlns="http://www.w3.org/2000/svg">
<path d="M34.4102 4.9375V22H30.8945L24.0391 10.5625V22H20.5234V4.9375H24.0391L30.9062 16.3867V4.9375H34.4102ZM39.4844 4.9375L43.0469 12.7188L46.6094 4.9375H50.4414L44.8281 15.7891V22H41.2656V15.7891L35.6406 4.9375H39.4844ZM67.8672 16.3398H71.3711C71.3008 17.4883 70.9844 18.5078 70.4219 19.3984C69.8672 20.2891 69.0898 20.9844 68.0898 21.4844C67.0977 21.9844 65.9023 22.2344 64.5039 22.2344C63.4102 22.2344 62.4297 22.0469 61.5625 21.6719C60.6953 21.2891 59.9531 20.7422 59.3359 20.0312C58.7266 19.3203 58.2617 18.4609 57.9414 17.4531C57.6211 16.4453 57.4609 15.3164 57.4609 14.0664V12.8828C57.4609 11.6328 57.625 10.5039 57.9531 9.49609C58.2891 8.48047 58.7656 7.61719 59.3828 6.90625C60.0078 6.19531 60.7539 5.64844 61.6211 5.26562C62.4883 4.88281 63.457 4.69141 64.5273 4.69141C65.9492 4.69141 67.1484 4.94922 68.125 5.46484C69.1094 5.98047 69.8711 6.69141 70.4102 7.59766C70.957 8.50391 71.2852 9.53516 71.3945 10.6914H67.8789C67.8398 10.0039 67.7031 9.42188 67.4688 8.94531C67.2344 8.46094 66.8789 8.09766 66.4023 7.85547C65.9336 7.60547 65.3086 7.48047 64.5273 7.48047C63.9414 7.48047 63.4297 7.58984 62.9922 7.80859C62.5547 8.02734 62.1875 8.35938 61.8906 8.80469C61.5938 9.25 61.3711 9.8125 61.2227 10.4922C61.082 11.1641 61.0117 11.9531 61.0117 12.8594V14.0664C61.0117 14.9492 61.0781 15.7266 61.2109 16.3984C61.3438 17.0625 61.5469 17.625 61.8203 18.0859C62.1016 18.5391 62.4609 18.8828 62.8984 19.1172C63.3438 19.3438 63.8789 19.457 64.5039 19.457C65.2383 19.457 65.8438 19.3398 66.3203 19.1055C66.7969 18.8711 67.1602 18.5234 67.4102 18.0625C67.668 17.6016 67.8203 17.0273 67.8672 16.3398ZM87.6953 13.0703V13.8789C87.6953 15.1758 87.5195 16.3398 87.168 17.3711C86.8164 18.4023 86.3203 19.2812 85.6797 20.0078C85.0391 20.7266 84.2734 21.2773 83.3828 21.6602C82.5 22.043 81.5195 22.2344 80.4414 22.2344C79.3711 22.2344 78.3906 22.043 77.5 21.6602C76.6172 21.2773 75.8516 20.7266 75.2031 20.0078C74.5547 19.2812 74.0508 18.4023 73.6914 17.3711C73.3398 16.3398 73.1641 15.1758 73.1641 13.8789V13.0703C73.1641 11.7656 73.3398 10.6016 73.6914 9.57812C74.043 8.54688 74.5391 7.66797 75.1797 6.94141C75.8281 6.21484 76.5938 5.66016 77.4766 5.27734C78.3672 4.89453 79.3477 4.70312 80.418 4.70312C81.4961 4.70312 82.4766 4.89453 83.3594 5.27734C84.25 5.66016 85.0156 6.21484 85.6562 6.94141C86.3047 7.66797 86.8047 8.54688 87.1562 9.57812C87.5156 10.6016 87.6953 11.7656 87.6953 13.0703ZM84.1445 13.8789V13.0469C84.1445 12.1406 84.0625 11.3438 83.8984 10.6562C83.7344 9.96875 83.4922 9.39062 83.1719 8.92188C82.8516 8.45312 82.4609 8.10156 82 7.86719C81.5391 7.625 81.0117 7.50391 80.418 7.50391C79.8242 7.50391 79.2969 7.625 78.8359 7.86719C78.3828 8.10156 77.9961 8.45312 77.6758 8.92188C77.3633 9.39062 77.125 9.96875 76.9609 10.6562C76.7969 11.3438 76.7148 12.1406 76.7148 13.0469V13.8789C76.7148 14.7773 76.7969 15.5742 76.9609 16.2695C77.125 16.957 77.3672 17.5391 77.6875 18.0156C78.0078 18.4844 78.3984 18.8398 78.8594 19.082C79.3203 19.3242 79.8477 19.4453 80.4414 19.4453C81.0352 19.4453 81.5625 19.3242 82.0234 19.082C82.4844 18.8398 82.8711 18.4844 83.1836 18.0156C83.4961 17.5391 83.7344 16.957 83.8984 16.2695C84.0625 15.5742 84.1445 14.7773 84.1445 13.8789ZM104.242 13.0703V13.8789C104.242 15.1758 104.066 16.3398 103.715 17.3711C103.363 18.4023 102.867 19.2812 102.227 20.0078C101.586 20.7266 100.82 21.2773 99.9297 21.6602C99.0469 22.043 98.0664 22.2344 96.9883 22.2344C95.918 22.2344 94.9375 22.043 94.0469 21.6602C93.1641 21.2773 92.3984 20.7266 91.75 20.0078C91.1016 19.2812 90.5977 18.4023 90.2383 17.3711C89.8867 16.3398 89.7109 15.1758 89.7109 13.8789V13.0703C89.7109 11.7656 89.8867 10.6016 90.2383 9.57812C90.5898 8.54688 91.0859 7.66797 91.7266 6.94141C92.375 6.21484 93.1406 5.66016 94.0234 5.27734C94.9141 4.89453 95.8945 4.70312 96.9648 4.70312C98.043 4.70312 99.0234 4.89453 99.9062 5.27734C100.797 5.66016 101.562 6.21484 102.203 6.94141C102.852 7.66797 103.352 8.54688 103.703 9.57812C104.062 10.6016 104.242 11.7656 104.242 13.0703ZM100.691 13.8789V13.0469C100.691 12.1406 100.609 11.3438 100.445 10.6562C100.281 9.96875 100.039 9.39062 99.7188 8.92188C99.3984 8.45312 99.0078 8.10156 98.5469 7.86719C98.0859 7.625 97.5586 7.50391 96.9648 7.50391C96.3711 7.50391 95.8438 7.625 95.3828 7.86719C94.9297 8.10156 94.543 8.45312 94.2227 8.92188C93.9102 9.39062 93.6719 9.96875 93.5078 10.6562C93.3438 11.3438 93.2617 12.1406 93.2617 13.0469V13.8789C93.2617 14.7773 93.3438 15.5742 93.5078 16.2695C93.6719 16.957 93.9141 17.5391 94.2344 18.0156C94.5547 18.4844 94.9453 18.8398 95.4062 19.082C95.8672 19.3242 96.3945 19.4453 96.9883 19.4453C97.582 19.4453 98.1094 19.3242 98.5703 19.082C99.0312 18.8398 99.418 18.4844 99.7305 18.0156C100.043 17.5391 100.281 16.957 100.445 16.2695C100.609 15.5742 100.691 14.7773 100.691 13.8789ZM117.742 19.2578V22H109.152V19.2578H117.742ZM110.289 4.9375V22H106.773V4.9375H110.289ZM134.617 17.5352C134.617 17.2305 134.57 16.957 134.477 16.7148C134.391 16.4648 134.227 16.2383 133.984 16.0352C133.742 15.8242 133.402 15.6172 132.965 15.4141C132.527 15.2109 131.961 15 131.266 14.7812C130.492 14.5312 129.758 14.25 129.062 13.9375C128.375 13.625 127.766 13.2617 127.234 12.8477C126.711 12.4258 126.297 11.9375 125.992 11.3828C125.695 10.8281 125.547 10.1836 125.547 9.44922C125.547 8.73828 125.703 8.09375 126.016 7.51562C126.328 6.92969 126.766 6.42969 127.328 6.01562C127.891 5.59375 128.555 5.26953 129.32 5.04297C130.094 4.81641 130.941 4.70312 131.863 4.70312C133.121 4.70312 134.219 4.92969 135.156 5.38281C136.094 5.83594 136.82 6.45703 137.336 7.24609C137.859 8.03516 138.121 8.9375 138.121 9.95312H134.629C134.629 9.45312 134.523 9.01562 134.312 8.64062C134.109 8.25781 133.797 7.95703 133.375 7.73828C132.961 7.51953 132.438 7.41016 131.805 7.41016C131.195 7.41016 130.688 7.50391 130.281 7.69141C129.875 7.87109 129.57 8.11719 129.367 8.42969C129.164 8.73438 129.062 9.07812 129.062 9.46094C129.062 9.75 129.133 10.0117 129.273 10.2461C129.422 10.4805 129.641 10.6992 129.93 10.9023C130.219 11.1055 130.574 11.2969 130.996 11.4766C131.418 11.6562 131.906 11.832 132.461 12.0039C133.391 12.2852 134.207 12.6016 134.91 12.9531C135.621 13.3047 136.215 13.6992 136.691 14.1367C137.168 14.5742 137.527 15.0703 137.77 15.625C138.012 16.1797 138.133 16.8086 138.133 17.5117C138.133 18.2539 137.988 18.918 137.699 19.5039C137.41 20.0898 136.992 20.5859 136.445 20.9922C135.898 21.3984 135.246 21.707 134.488 21.918C133.73 22.1289 132.883 22.2344 131.945 22.2344C131.102 22.2344 130.27 22.125 129.449 21.9062C128.629 21.6797 127.883 21.3398 127.211 20.8867C126.547 20.4336 126.016 19.8555 125.617 19.1523C125.219 18.4492 125.02 17.6172 125.02 16.6562H128.547C128.547 17.1875 128.629 17.6367 128.793 18.0039C128.957 18.3711 129.188 18.668 129.484 18.8945C129.789 19.1211 130.148 19.2852 130.562 19.3867C130.984 19.4883 131.445 19.5391 131.945 19.5391C132.555 19.5391 133.055 19.4531 133.445 19.2812C133.844 19.1094 134.137 18.8711 134.324 18.5664C134.52 18.2617 134.617 17.918 134.617 17.5352ZM148.152 4.9375V22H144.648V4.9375H148.152ZM153.402 4.9375V7.69141H139.48V4.9375H153.402ZM169.094 13.0703V13.8789C169.094 15.1758 168.918 16.3398 168.566 17.3711C168.215 18.4023 167.719 19.2812 167.078 20.0078C166.438 20.7266 165.672 21.2773 164.781 21.6602C163.898 22.043 162.918 22.2344 161.84 22.2344C160.77 22.2344 159.789 22.043 158.898 21.6602C158.016 21.2773 157.25 20.7266 156.602 20.0078C155.953 19.2812 155.449 18.4023 155.09 17.3711C154.738 16.3398 154.562 15.1758 154.562 13.8789V13.0703C154.562 11.7656 154.738 10.6016 155.09 9.57812C155.441 8.54688 155.938 7.66797 156.578 6.94141C157.227 6.21484 157.992 5.66016 158.875 5.27734C159.766 4.89453 160.746 4.70312 161.816 4.70312C162.895 4.70312 163.875 4.89453 164.758 5.27734C165.648 5.66016 166.414 6.21484 167.055 6.94141C167.703 7.66797 168.203 8.54688 168.555 9.57812C168.914 10.6016 169.094 11.7656 169.094 13.0703ZM165.543 13.8789V13.0469C165.543 12.1406 165.461 11.3438 165.297 10.6562C165.133 9.96875 164.891 9.39062 164.57 8.92188C164.25 8.45312 163.859 8.10156 163.398 7.86719C162.938 7.625 162.41 7.50391 161.816 7.50391C161.223 7.50391 160.695 7.625 160.234 7.86719C159.781 8.10156 159.395 8.45312 159.074 8.92188C158.762 9.39062 158.523 9.96875 158.359 10.6562C158.195 11.3438 158.113 12.1406 158.113 13.0469V13.8789C158.113 14.7773 158.195 15.5742 158.359 16.2695C158.523 16.957 158.766 17.5391 159.086 18.0156C159.406 18.4844 159.797 18.8398 160.258 19.082C160.719 19.3242 161.246 19.4453 161.84 19.4453C162.434 19.4453 162.961 19.3242 163.422 19.082C163.883 18.8398 164.27 18.4844 164.582 18.0156C164.895 17.5391 165.133 16.957 165.297 16.2695C165.461 15.5742 165.543 14.7773 165.543 13.8789ZM171.625 4.9375H177.988C179.293 4.9375 180.414 5.13281 181.352 5.52344C182.297 5.91406 183.023 6.49219 183.531 7.25781C184.039 8.02344 184.293 8.96484 184.293 10.082C184.293 10.9961 184.137 11.7812 183.824 12.4375C183.52 13.0859 183.086 13.6289 182.523 14.0664C181.969 14.4961 181.316 14.8398 180.566 15.0977L179.453 15.6836H173.922L173.898 12.9414H178.012C178.629 12.9414 179.141 12.832 179.547 12.6133C179.953 12.3945 180.258 12.0898 180.461 11.6992C180.672 11.3086 180.777 10.8555 180.777 10.3398C180.777 9.79297 180.676 9.32031 180.473 8.92188C180.27 8.52344 179.961 8.21875 179.547 8.00781C179.133 7.79688 178.613 7.69141 177.988 7.69141H175.141V22H171.625V4.9375ZM181.164 22L177.273 14.3945L180.988 14.3711L184.926 21.8359V22H181.164ZM198.449 19.2578V22H189.367V19.2578H198.449ZM190.516 4.9375V22H187V4.9375H190.516ZM197.266 11.8867V14.5586H189.367V11.8867H197.266ZM198.438 4.9375V7.69141H189.367V4.9375H198.438Z" fill="white"/>
<path d="M9.12891 19.502L14.543 3H18.9043L11.5078 22.9062H8.73242L9.12891 19.502ZM4.63086 3L10.0586 19.502L10.4961 22.9062H7.69336L0.255859 3L4.63086 3ZM4.87695 10.4102L4.87695 7.19727H15.3906L15.3906 10.4102H4.87695Z" fill="#6E5A98"/>
</svg>
